<mxfile host="app.diagrams.net" modified="2023-11-28T23:56:08.144Z" agent="Mozilla/5.0 (Windows NT 10.0; Win64; x64) AppleWebKit/537.36 (KHTML, like Gecko) Chrome/119.0.0.0 Safari/537.36" etag="_YgDf_sOPAdnVUg3BxSZ" version="22.1.4" type="github">
  <diagram id="C5RBs43oDa-KdzZeNtuy" name="Page-1">
    <mxGraphModel dx="3349" dy="1331" grid="0" gridSize="10" guides="1" tooltips="1" connect="1" arrows="1" fold="1" page="1" pageScale="1" pageWidth="827" pageHeight="1169" math="0" shadow="0">
      <root>
        <mxCell id="WIyWlLk6GJQsqaUBKTNV-0" />
        <mxCell id="WIyWlLk6GJQsqaUBKTNV-1" parent="WIyWlLk6GJQsqaUBKTNV-0" />
        <mxCell id="_yAwY9JpoHFZiGc7RJdQ-16" style="edgeStyle=orthogonalEdgeStyle;rounded=0;orthogonalLoop=1;jettySize=auto;html=1;exitX=0.5;exitY=1;exitDx=0;exitDy=0;" parent="WIyWlLk6GJQsqaUBKTNV-1" edge="1">
          <mxGeometry relative="1" as="geometry">
            <mxPoint x="647" y="493" as="sourcePoint" />
            <mxPoint x="647" y="493" as="targetPoint" />
          </mxGeometry>
        </mxCell>
        <mxCell id="_yAwY9JpoHFZiGc7RJdQ-19" value="&lt;font style=&quot;vertical-align: inherit; font-size: 14px;&quot;&gt;&lt;font style=&quot;vertical-align: inherit; font-size: 14px;&quot;&gt;Estoque&lt;/font&gt;&lt;/font&gt;" style="swimlane;fontStyle=1;childLayout=stackLayout;horizontal=1;startSize=30;horizontalStack=0;resizeParent=1;resizeParentMax=0;resizeLast=0;collapsible=1;marginBottom=0;whiteSpace=wrap;html=1;fontSize=14;fontFamily=Lucida Console;" parent="WIyWlLk6GJQsqaUBKTNV-1" vertex="1">
          <mxGeometry x="568" y="103" width="230" height="280" as="geometry" />
        </mxCell>
        <mxCell id="_yAwY9JpoHFZiGc7RJdQ-20" value="&lt;ul&gt;&lt;li&gt;&lt;b style=&quot;font-family: &amp;quot;Courier New&amp;quot;; text-align: justify; color: rgb(55, 65, 81); background-color: initial;&quot;&gt;ID do Estoque (chave primária)&lt;/b&gt;&lt;/li&gt;&lt;/ul&gt;&lt;ul&gt;&lt;li&gt;&lt;b style=&quot;font-family: &amp;quot;Courier New&amp;quot;; text-align: justify; color: rgb(55, 65, 81); background-color: initial;&quot;&gt;ID do Ingrediente (chave estrangeira referenciando a dimensão Ingrediente)&lt;/b&gt;&lt;/li&gt;&lt;/ul&gt;&lt;ul&gt;&lt;li&gt;&lt;b style=&quot;font-family: &amp;quot;Courier New&amp;quot;; text-align: justify; color: rgb(55, 65, 81); background-color: initial;&quot;&gt;Quantidade inicial&lt;/b&gt;&lt;/li&gt;&lt;/ul&gt;&lt;ul&gt;&lt;li&gt;&lt;b style=&quot;font-family: &amp;quot;Courier New&amp;quot;; text-align: justify; color: rgb(55, 65, 81); background-color: initial;&quot;&gt;Quantidade final&lt;/b&gt;&lt;/li&gt;&lt;/ul&gt;&lt;ul&gt;&lt;li&gt;&lt;b style=&quot;font-family: &amp;quot;Courier New&amp;quot;; text-align: justify; color: rgb(55, 65, 81); background-color: initial;&quot;&gt;Dados de Atualização do Estoque&lt;/b&gt;&lt;/li&gt;&lt;/ul&gt;&lt;ul&gt;&lt;li&gt;&lt;b style=&quot;font-family: &amp;quot;Courier New&amp;quot;; text-align: justify; color: rgb(55, 65, 81); background-color: initial;&quot;&gt;Motivo da Atualização (compra, saída para produção, etc.)&lt;/b&gt;&lt;/li&gt;&lt;/ul&gt;" style="text;strokeColor=none;fillColor=none;align=left;verticalAlign=middle;spacingLeft=-18;spacingRight=1;overflow=hidden;points=[[0,0.5],[1,0.5]];portConstraint=eastwest;rotatable=0;whiteSpace=wrap;html=1;spacing=0;spacingTop=-6;" parent="_yAwY9JpoHFZiGc7RJdQ-19" vertex="1">
          <mxGeometry y="30" width="230" height="250" as="geometry" />
        </mxCell>
        <mxCell id="_yAwY9JpoHFZiGc7RJdQ-70" value="" style="edgeStyle=orthogonalEdgeStyle;rounded=0;orthogonalLoop=1;jettySize=auto;html=1;entryX=0.5;entryY=1;entryDx=0;entryDy=0;" parent="WIyWlLk6GJQsqaUBKTNV-1" target="_yAwY9JpoHFZiGc7RJdQ-45" edge="1">
          <mxGeometry relative="1" as="geometry">
            <Array as="points">
              <mxPoint x="678" y="668" />
            </Array>
            <mxPoint x="537" y="668" as="sourcePoint" />
            <mxPoint x="717" y="654" as="targetPoint" />
          </mxGeometry>
        </mxCell>
        <mxCell id="U0Dm-3HwFvKWNL6rIwJs-1" value="" style="edgeStyle=orthogonalEdgeStyle;rounded=0;orthogonalLoop=1;jettySize=auto;html=1;" edge="1" parent="WIyWlLk6GJQsqaUBKTNV-1" source="_yAwY9JpoHFZiGc7RJdQ-24" target="_yAwY9JpoHFZiGc7RJdQ-29">
          <mxGeometry relative="1" as="geometry">
            <Array as="points">
              <mxPoint x="413" y="392" />
              <mxPoint x="413" y="392" />
            </Array>
          </mxGeometry>
        </mxCell>
        <mxCell id="_yAwY9JpoHFZiGc7RJdQ-24" value="&lt;font style=&quot;vertical-align: inherit; font-size: 15px;&quot;&gt;&lt;font style=&quot;vertical-align: inherit; font-size: 15px;&quot;&gt;&lt;font style=&quot;vertical-align: inherit; font-size: 15px;&quot;&gt;&lt;font style=&quot;vertical-align: inherit; font-size: 15px;&quot;&gt;&lt;font style=&quot;vertical-align: inherit;&quot;&gt;&lt;font style=&quot;vertical-align: inherit;&quot;&gt;Tabela_Fato_Pedidos&lt;/font&gt;&lt;/font&gt;&lt;br style=&quot;font-size: 15px;&quot;&gt;&lt;/font&gt;&lt;/font&gt;&lt;/font&gt;&lt;/font&gt;" style="swimlane;fontStyle=1;childLayout=stackLayout;horizontal=1;startSize=30;horizontalStack=0;resizeParent=1;resizeParentMax=0;resizeLast=0;collapsible=1;marginBottom=0;whiteSpace=wrap;html=1;fontSize=15;fontFamily=Lucida Console;" parent="WIyWlLk6GJQsqaUBKTNV-1" vertex="1">
          <mxGeometry x="288" y="463" width="250" height="380" as="geometry">
            <mxRectangle x="324" y="240" width="80" height="30" as="alternateBounds" />
          </mxGeometry>
        </mxCell>
        <mxCell id="_yAwY9JpoHFZiGc7RJdQ-25" value="&lt;ul style=&quot;line-height: 110%; font-size: 12px;&quot;&gt;&lt;li style=&quot;font-size: 12px;&quot;&gt;&lt;span style=&quot;font-size: 12px; text-align: justify; background-color: initial;&quot;&gt;ID do Pedido (chave primária)&lt;/span&gt;&lt;/li&gt;&lt;/ul&gt;&lt;ul style=&quot;line-height: 110%; font-size: 12px;&quot;&gt;&lt;li style=&quot;font-size: 12px;&quot;&gt;&lt;span style=&quot;font-size: 12px; text-align: justify; background-color: initial;&quot;&gt;ID do Cliente (chave estrangeira referenciando a dimensão Cliente)&lt;/span&gt;&lt;/li&gt;&lt;/ul&gt;&lt;ul style=&quot;line-height: 110%; font-size: 12px;&quot;&gt;&lt;li style=&quot;font-size: 12px;&quot;&gt;&lt;span style=&quot;font-size: 12px; text-align: justify; background-color: initial;&quot;&gt;ID do Produto (chave estrangeira referenciando a dimensão Produto)&lt;/span&gt;&lt;/li&gt;&lt;/ul&gt;&lt;ul style=&quot;line-height: 110%; font-size: 12px;&quot;&gt;&lt;li style=&quot;font-size: 12px;&quot;&gt;&lt;span style=&quot;font-size: 12px; text-align: justify; background-color: initial;&quot;&gt;ID do Funcionário (chave estrangeira referenciando a dimensão Funcionários)&lt;/span&gt;&lt;/li&gt;&lt;/ul&gt;&lt;ul style=&quot;line-height: 110%; font-size: 12px;&quot;&gt;&lt;li style=&quot;font-size: 12px;&quot;&gt;&lt;span style=&quot;font-size: 12px; text-align: justify; background-color: initial;&quot;&gt;ID da Pizza (chave estrangeira referenciando a dimensão Pizza)&lt;/span&gt;&lt;/li&gt;&lt;/ul&gt;&lt;ul style=&quot;line-height: 110%; font-size: 12px;&quot;&gt;&lt;li style=&quot;font-size: 12px;&quot;&gt;&lt;span style=&quot;font-size: 12px; text-align: justify; background-color: initial;&quot;&gt;Data e hora do pedido&lt;/span&gt;&lt;/li&gt;&lt;/ul&gt;&lt;ul style=&quot;line-height: 110%; font-size: 12px;&quot;&gt;&lt;li style=&quot;font-size: 12px;&quot;&gt;&lt;span style=&quot;font-size: 12px; text-align: justify; background-color: initial;&quot;&gt;Quantidade&lt;/span&gt;&lt;/li&gt;&lt;/ul&gt;&lt;ul style=&quot;line-height: 110%; font-size: 12px;&quot;&gt;&lt;li style=&quot;font-size: 12px;&quot;&gt;&lt;span style=&quot;font-size: 12px; text-align: justify; background-color: initial;&quot;&gt;Preço total do pedido&lt;/span&gt;&lt;/li&gt;&lt;/ul&gt;&lt;ul style=&quot;line-height: 110%; font-size: 12px;&quot;&gt;&lt;li style=&quot;font-size: 12px;&quot;&gt;&lt;span style=&quot;font-size: 12px; text-align: justify; background-color: initial;&quot;&gt;Status do Pedido (pendente, em preparação, entregue, etc.)&lt;/span&gt;&lt;/li&gt;&lt;/ul&gt;" style="text;strokeColor=#82b366;fillColor=#4F9BA1;align=left;verticalAlign=middle;spacingLeft=-10;spacingRight=3;overflow=hidden;points=[[0,0.5],[1,0.5]];portConstraint=eastwest;rotatable=0;html=1;imageAlign=left;spacingTop=0;spacingBottom=0;spacing=0;horizontal=1;fontStyle=1;whiteSpace=wrap;fontColor=#000000;fontSize=12;fontFamily=Courier New;" parent="_yAwY9JpoHFZiGc7RJdQ-24" vertex="1">
          <mxGeometry y="30" width="250" height="350" as="geometry" />
        </mxCell>
        <mxCell id="_yAwY9JpoHFZiGc7RJdQ-28" value="&lt;font style=&quot;vertical-align: inherit; font-size: 14px;&quot;&gt;&lt;font style=&quot;vertical-align: inherit; font-size: 14px;&quot;&gt;&lt;font style=&quot;vertical-align: inherit; font-size: 14px;&quot;&gt;&lt;font style=&quot;vertical-align: inherit; font-size: 14px;&quot;&gt;Clientes&lt;/font&gt;&lt;/font&gt;&lt;/font&gt;&lt;/font&gt;" style="swimlane;fontStyle=1;childLayout=stackLayout;horizontal=1;startSize=30;horizontalStack=0;resizeParent=1;resizeParentMax=0;resizeLast=0;collapsible=1;marginBottom=0;whiteSpace=wrap;html=1;fontSize=14;fontFamily=Lucida Console;" parent="WIyWlLk6GJQsqaUBKTNV-1" vertex="1">
          <mxGeometry x="313" y="73" width="200" height="270" as="geometry" />
        </mxCell>
        <mxCell id="_yAwY9JpoHFZiGc7RJdQ-29" value="&lt;ul style=&quot;border: 0px solid rgb(217, 217, 227); box-sizing: border-box; --tw-border-spacing-x: 0; --tw-border-spacing-y: 0; --tw-translate-x: 0; --tw-translate-y: 0; --tw-rotate: 0; --tw-skew-x: 0; --tw-skew-y: 0; --tw-scale-x: 1; --tw-scale-y: 1; --tw-pan-x: ; --tw-pan-y: ; --tw-pinch-zoom: ; --tw-scroll-snap-strictness: proximity; --tw-gradient-from-position: ; --tw-gradient-via-position: ; --tw-gradient-to-position: ; --tw-ordinal: ; --tw-slashed-zero: ; --tw-numeric-figure: ; --tw-numeric-spacing: ; --tw-numeric-fraction: ; --tw-ring-inset: ; --tw-ring-offset-width: 0px; --tw-ring-offset-color: #fff; --tw-ring-color: rgba(69,89,164,.5); --tw-ring-offset-shadow: 0 0 transparent; --tw-ring-shadow: 0 0 transparent; --tw-shadow: 0 0 transparent; --tw-shadow-colored: 0 0 transparent; --tw-blur: ; --tw-brightness: ; --tw-contrast: ; --tw-grayscale: ; --tw-hue-rotate: ; --tw-invert: ; --tw-saturate: ; --tw-sepia: ; --tw-drop-shadow: ; --tw-backdrop-blur: ; --tw-backdrop-brightness: ; --tw-backdrop-contrast: ; --tw-backdrop-grayscale: ; --tw-backdrop-hue-rotate: ; --tw-backdrop-invert: ; --tw-backdrop-opacity: ; --tw-backdrop-saturate: ; --tw-backdrop-sepia: ; list-style-position: initial; list-style-image: initial; margin: 0px 0px 0px 1rem; padding: 0px; display: flex; flex-direction: column; color: rgb(55, 65, 81);&quot;&gt;&lt;li&gt;&lt;b style=&quot;color: rgb(55, 65, 81); background-color: initial;&quot;&gt;&lt;font face=&quot;Courier New&quot;&gt;ID do Cliente (chave primária)&lt;/font&gt;&lt;/b&gt;&lt;/li&gt;&lt;/ul&gt;&lt;div&gt;&lt;font face=&quot;Courier New&quot; color=&quot;#374151&quot;&gt;&lt;b&gt;&lt;br&gt;&lt;/b&gt;&lt;/font&gt;&lt;/div&gt;&lt;ul style=&quot;border: 0px solid rgb(217, 217, 227); box-sizing: border-box; --tw-border-spacing-x: 0; --tw-border-spacing-y: 0; --tw-translate-x: 0; --tw-translate-y: 0; --tw-rotate: 0; --tw-skew-x: 0; --tw-skew-y: 0; --tw-scale-x: 1; --tw-scale-y: 1; --tw-pan-x: ; --tw-pan-y: ; --tw-pinch-zoom: ; --tw-scroll-snap-strictness: proximity; --tw-gradient-from-position: ; --tw-gradient-via-position: ; --tw-gradient-to-position: ; --tw-ordinal: ; --tw-slashed-zero: ; --tw-numeric-figure: ; --tw-numeric-spacing: ; --tw-numeric-fraction: ; --tw-ring-inset: ; --tw-ring-offset-width: 0px; --tw-ring-offset-color: #fff; --tw-ring-color: rgba(69,89,164,.5); --tw-ring-offset-shadow: 0 0 transparent; --tw-ring-shadow: 0 0 transparent; --tw-shadow: 0 0 transparent; --tw-shadow-colored: 0 0 transparent; --tw-blur: ; --tw-brightness: ; --tw-contrast: ; --tw-grayscale: ; --tw-hue-rotate: ; --tw-invert: ; --tw-saturate: ; --tw-sepia: ; --tw-drop-shadow: ; --tw-backdrop-blur: ; --tw-backdrop-brightness: ; --tw-backdrop-contrast: ; --tw-backdrop-grayscale: ; --tw-backdrop-hue-rotate: ; --tw-backdrop-invert: ; --tw-backdrop-opacity: ; --tw-backdrop-saturate: ; --tw-backdrop-sepia: ; list-style-position: initial; list-style-image: initial; margin: 0px 0px 0px 1rem; padding: 0px; display: flex; flex-direction: column; color: rgb(55, 65, 81);&quot;&gt;&lt;li&gt;&lt;b style=&quot;color: rgb(55, 65, 81); background-color: initial;&quot;&gt;&lt;font face=&quot;Courier New&quot;&gt;Nome do Cliente&lt;/font&gt;&lt;/b&gt;&lt;/li&gt;&lt;/ul&gt;&lt;div&gt;&lt;font face=&quot;Courier New&quot; color=&quot;#374151&quot;&gt;&lt;b&gt;&lt;br&gt;&lt;/b&gt;&lt;/font&gt;&lt;/div&gt;&lt;ul style=&quot;border: 0px solid rgb(217, 217, 227); box-sizing: border-box; --tw-border-spacing-x: 0; --tw-border-spacing-y: 0; --tw-translate-x: 0; --tw-translate-y: 0; --tw-rotate: 0; --tw-skew-x: 0; --tw-skew-y: 0; --tw-scale-x: 1; --tw-scale-y: 1; --tw-pan-x: ; --tw-pan-y: ; --tw-pinch-zoom: ; --tw-scroll-snap-strictness: proximity; --tw-gradient-from-position: ; --tw-gradient-via-position: ; --tw-gradient-to-position: ; --tw-ordinal: ; --tw-slashed-zero: ; --tw-numeric-figure: ; --tw-numeric-spacing: ; --tw-numeric-fraction: ; --tw-ring-inset: ; --tw-ring-offset-width: 0px; --tw-ring-offset-color: #fff; --tw-ring-color: rgba(69,89,164,.5); --tw-ring-offset-shadow: 0 0 transparent; --tw-ring-shadow: 0 0 transparent; --tw-shadow: 0 0 transparent; --tw-shadow-colored: 0 0 transparent; --tw-blur: ; --tw-brightness: ; --tw-contrast: ; --tw-grayscale: ; --tw-hue-rotate: ; --tw-invert: ; --tw-saturate: ; --tw-sepia: ; --tw-drop-shadow: ; --tw-backdrop-blur: ; --tw-backdrop-brightness: ; --tw-backdrop-contrast: ; --tw-backdrop-grayscale: ; --tw-backdrop-hue-rotate: ; --tw-backdrop-invert: ; --tw-backdrop-opacity: ; --tw-backdrop-saturate: ; --tw-backdrop-sepia: ; list-style-position: initial; list-style-image: initial; margin: 0px 0px 0px 1rem; padding: 0px; display: flex; flex-direction: column; color: rgb(55, 65, 81);&quot;&gt;&lt;li&gt;&lt;b style=&quot;color: rgb(55, 65, 81); background-color: initial;&quot;&gt;&lt;font face=&quot;Courier New&quot;&gt;Endereço do Cliente&lt;/font&gt;&lt;/b&gt;&lt;/li&gt;&lt;/ul&gt;&lt;div&gt;&lt;font face=&quot;Courier New&quot; color=&quot;#374151&quot;&gt;&lt;b&gt;&lt;br&gt;&lt;/b&gt;&lt;/font&gt;&lt;/div&gt;&lt;ul style=&quot;border: 0px solid rgb(217, 217, 227); box-sizing: border-box; --tw-border-spacing-x: 0; --tw-border-spacing-y: 0; --tw-translate-x: 0; --tw-translate-y: 0; --tw-rotate: 0; --tw-skew-x: 0; --tw-skew-y: 0; --tw-scale-x: 1; --tw-scale-y: 1; --tw-pan-x: ; --tw-pan-y: ; --tw-pinch-zoom: ; --tw-scroll-snap-strictness: proximity; --tw-gradient-from-position: ; --tw-gradient-via-position: ; --tw-gradient-to-position: ; --tw-ordinal: ; --tw-slashed-zero: ; --tw-numeric-figure: ; --tw-numeric-spacing: ; --tw-numeric-fraction: ; --tw-ring-inset: ; --tw-ring-offset-width: 0px; --tw-ring-offset-color: #fff; --tw-ring-color: rgba(69,89,164,.5); --tw-ring-offset-shadow: 0 0 transparent; --tw-ring-shadow: 0 0 transparent; --tw-shadow: 0 0 transparent; --tw-shadow-colored: 0 0 transparent; --tw-blur: ; --tw-brightness: ; --tw-contrast: ; --tw-grayscale: ; --tw-hue-rotate: ; --tw-invert: ; --tw-saturate: ; --tw-sepia: ; --tw-drop-shadow: ; --tw-backdrop-blur: ; --tw-backdrop-brightness: ; --tw-backdrop-contrast: ; --tw-backdrop-grayscale: ; --tw-backdrop-hue-rotate: ; --tw-backdrop-invert: ; --tw-backdrop-opacity: ; --tw-backdrop-saturate: ; --tw-backdrop-sepia: ; list-style-position: initial; list-style-image: initial; margin: 0px 0px 0px 1rem; padding: 0px; display: flex; flex-direction: column; color: rgb(55, 65, 81);&quot;&gt;&lt;li&gt;&lt;b style=&quot;color: rgb(55, 65, 81); background-color: initial;&quot;&gt;&lt;font face=&quot;Courier New&quot;&gt;Número de telefone do cliente&lt;/font&gt;&lt;/b&gt;&lt;/li&gt;&lt;/ul&gt;&lt;div&gt;&lt;font face=&quot;Courier New&quot; color=&quot;#374151&quot;&gt;&lt;b&gt;&lt;br&gt;&lt;/b&gt;&lt;/font&gt;&lt;/div&gt;&lt;ul style=&quot;border: 0px solid rgb(217, 217, 227); box-sizing: border-box; --tw-border-spacing-x: 0; --tw-border-spacing-y: 0; --tw-translate-x: 0; --tw-translate-y: 0; --tw-rotate: 0; --tw-skew-x: 0; --tw-skew-y: 0; --tw-scale-x: 1; --tw-scale-y: 1; --tw-pan-x: ; --tw-pan-y: ; --tw-pinch-zoom: ; --tw-scroll-snap-strictness: proximity; --tw-gradient-from-position: ; --tw-gradient-via-position: ; --tw-gradient-to-position: ; --tw-ordinal: ; --tw-slashed-zero: ; --tw-numeric-figure: ; --tw-numeric-spacing: ; --tw-numeric-fraction: ; --tw-ring-inset: ; --tw-ring-offset-width: 0px; --tw-ring-offset-color: #fff; --tw-ring-color: rgba(69,89,164,.5); --tw-ring-offset-shadow: 0 0 transparent; --tw-ring-shadow: 0 0 transparent; --tw-shadow: 0 0 transparent; --tw-shadow-colored: 0 0 transparent; --tw-blur: ; --tw-brightness: ; --tw-contrast: ; --tw-grayscale: ; --tw-hue-rotate: ; --tw-invert: ; --tw-saturate: ; --tw-sepia: ; --tw-drop-shadow: ; --tw-backdrop-blur: ; --tw-backdrop-brightness: ; --tw-backdrop-contrast: ; --tw-backdrop-grayscale: ; --tw-backdrop-hue-rotate: ; --tw-backdrop-invert: ; --tw-backdrop-opacity: ; --tw-backdrop-saturate: ; --tw-backdrop-sepia: ; list-style-position: initial; list-style-image: initial; margin: 0px 0px 0px 1rem; padding: 0px; display: flex; flex-direction: column; color: rgb(55, 65, 81);&quot;&gt;&lt;li&gt;&lt;b style=&quot;color: rgb(55, 65, 81); background-color: initial;&quot;&gt;&lt;font face=&quot;Courier New&quot;&gt;E-mail do Cliente&lt;/font&gt;&lt;/b&gt;&lt;/li&gt;&lt;/ul&gt;&lt;div&gt;&lt;font face=&quot;Courier New&quot; color=&quot;#374151&quot;&gt;&lt;b&gt;&lt;br&gt;&lt;/b&gt;&lt;/font&gt;&lt;/div&gt;&lt;ul style=&quot;border: 0px solid rgb(217, 217, 227); box-sizing: border-box; --tw-border-spacing-x: 0; --tw-border-spacing-y: 0; --tw-translate-x: 0; --tw-translate-y: 0; --tw-rotate: 0; --tw-skew-x: 0; --tw-skew-y: 0; --tw-scale-x: 1; --tw-scale-y: 1; --tw-pan-x: ; --tw-pan-y: ; --tw-pinch-zoom: ; --tw-scroll-snap-strictness: proximity; --tw-gradient-from-position: ; --tw-gradient-via-position: ; --tw-gradient-to-position: ; --tw-ordinal: ; --tw-slashed-zero: ; --tw-numeric-figure: ; --tw-numeric-spacing: ; --tw-numeric-fraction: ; --tw-ring-inset: ; --tw-ring-offset-width: 0px; --tw-ring-offset-color: #fff; --tw-ring-color: rgba(69,89,164,.5); --tw-ring-offset-shadow: 0 0 transparent; --tw-ring-shadow: 0 0 transparent; --tw-shadow: 0 0 transparent; --tw-shadow-colored: 0 0 transparent; --tw-blur: ; --tw-brightness: ; --tw-contrast: ; --tw-grayscale: ; --tw-hue-rotate: ; --tw-invert: ; --tw-saturate: ; --tw-sepia: ; --tw-drop-shadow: ; --tw-backdrop-blur: ; --tw-backdrop-brightness: ; --tw-backdrop-contrast: ; --tw-backdrop-grayscale: ; --tw-backdrop-hue-rotate: ; --tw-backdrop-invert: ; --tw-backdrop-opacity: ; --tw-backdrop-saturate: ; --tw-backdrop-sepia: ; list-style-position: initial; list-style-image: initial; margin: 0px 0px 0px 1rem; padding: 0px; display: flex; flex-direction: column; color: rgb(55, 65, 81);&quot;&gt;&lt;li&gt;&lt;b style=&quot;color: rgb(55, 65, 81); background-color: initial;&quot;&gt;&lt;font face=&quot;Courier New&quot;&gt;Tipo de Cliente (frequente, ocasional, etc.)&lt;/font&gt;&lt;/b&gt;&lt;/li&gt;&lt;/ul&gt;" style="text;strokeColor=#314354;fillColor=#ffffff;align=left;verticalAlign=middle;spacingLeft=6;spacingRight=4;overflow=hidden;points=[[0,0.5],[1,0.5]];portConstraint=eastwest;rotatable=0;whiteSpace=wrap;html=1;fontColor=#ffffff;" parent="_yAwY9JpoHFZiGc7RJdQ-28" vertex="1">
          <mxGeometry y="30" width="200" height="240" as="geometry" />
        </mxCell>
        <mxCell id="_yAwY9JpoHFZiGc7RJdQ-32" value="&lt;font style=&quot;vertical-align: inherit; font-size: 14px;&quot;&gt;&lt;font style=&quot;vertical-align: inherit; font-size: 14px;&quot;&gt;&lt;font style=&quot;vertical-align: inherit; font-size: 14px;&quot;&gt;&lt;font style=&quot;vertical-align: inherit; font-size: 14px;&quot;&gt;Produtos&lt;/font&gt;&lt;/font&gt;&lt;/font&gt;&lt;/font&gt;" style="swimlane;fontStyle=1;childLayout=stackLayout;horizontal=1;startSize=30;horizontalStack=0;resizeParent=1;resizeParentMax=0;resizeLast=0;collapsible=1;marginBottom=0;whiteSpace=wrap;html=1;spacingLeft=-3;fontSize=14;fontFamily=Lucida Console;" parent="WIyWlLk6GJQsqaUBKTNV-1" vertex="1">
          <mxGeometry x="28" y="133" width="250" height="280" as="geometry" />
        </mxCell>
        <mxCell id="_yAwY9JpoHFZiGc7RJdQ-33" value="&lt;ul&gt;&lt;li&gt;&lt;span style=&quot;color: rgb(55, 65, 81); background-color: initial;&quot;&gt;&lt;font face=&quot;Courier New&quot;&gt;ID do Produto (chave primária)&lt;/font&gt;&lt;/span&gt;&lt;/li&gt;&lt;/ul&gt;&lt;ul&gt;&lt;li&gt;&lt;span style=&quot;color: rgb(55, 65, 81); background-color: initial;&quot;&gt;&lt;font face=&quot;Courier New&quot;&gt;Nome do Produto&lt;/font&gt;&lt;/span&gt;&lt;/li&gt;&lt;/ul&gt;&lt;ul&gt;&lt;li&gt;&lt;span style=&quot;color: rgb(55, 65, 81); background-color: initial;&quot;&gt;&lt;font face=&quot;Courier New&quot;&gt;Categoria do Produto (pizza, bebida, sobremesa, etc.)&lt;/font&gt;&lt;/span&gt;&lt;/li&gt;&lt;/ul&gt;&lt;ul&gt;&lt;li&gt;&lt;span style=&quot;color: rgb(55, 65, 81); background-color: initial;&quot;&gt;&lt;font face=&quot;Courier New&quot;&gt;Preço do Produto&lt;/font&gt;&lt;/span&gt;&lt;/li&gt;&lt;/ul&gt;&lt;ul&gt;&lt;li&gt;&lt;span style=&quot;color: rgb(55, 65, 81); background-color: initial;&quot;&gt;&lt;font face=&quot;Courier New&quot;&gt;Calorias do Produto&lt;/font&gt;&lt;/span&gt;&lt;/li&gt;&lt;/ul&gt;&lt;ul&gt;&lt;li&gt;&lt;span style=&quot;color: rgb(55, 65, 81); background-color: initial;&quot;&gt;&lt;font face=&quot;Courier New&quot;&gt;Ingredientes do Produto (pode ser uma lista de ingredientes ou uma chave estrangeira referenciando a dimensão Ingrediente)&lt;/font&gt;&lt;/span&gt;&lt;/li&gt;&lt;/ul&gt;" style="text;strokeColor=none;fillColor=none;align=left;verticalAlign=middle;spacingLeft=-17;spacingRight=4;overflow=hidden;points=[[0,0.5],[1,0.5]];portConstraint=eastwest;rotatable=0;whiteSpace=wrap;html=1;fontStyle=1" parent="_yAwY9JpoHFZiGc7RJdQ-32" vertex="1">
          <mxGeometry y="30" width="250" height="250" as="geometry" />
        </mxCell>
        <mxCell id="_yAwY9JpoHFZiGc7RJdQ-37" value="&lt;font style=&quot;vertical-align: inherit; font-size: 14px;&quot;&gt;&lt;font style=&quot;vertical-align: inherit; font-size: 14px;&quot;&gt;&lt;font style=&quot;vertical-align: inherit; font-size: 14px;&quot;&gt;&lt;font style=&quot;vertical-align: inherit; font-size: 14px;&quot;&gt;Tempo&lt;/font&gt;&lt;/font&gt;&lt;/font&gt;&lt;/font&gt;" style="swimlane;fontStyle=1;childLayout=stackLayout;horizontal=1;startSize=30;horizontalStack=0;resizeParent=1;resizeParentMax=0;resizeLast=0;collapsible=1;marginBottom=0;whiteSpace=wrap;html=1;fontSize=14;fontFamily=Lucida Console;" parent="WIyWlLk6GJQsqaUBKTNV-1" vertex="1">
          <mxGeometry x="53" y="443" width="190" height="260" as="geometry" />
        </mxCell>
        <mxCell id="_yAwY9JpoHFZiGc7RJdQ-38" value="&lt;ul&gt;&lt;li style=&quot;text-align: justify;&quot;&gt;&lt;span style=&quot;color: rgb(55, 65, 81); background-color: initial;&quot;&gt;ID do Tempo (chave primária)&lt;/span&gt;&lt;/li&gt;&lt;/ul&gt;&lt;ul&gt;&lt;li style=&quot;text-align: justify;&quot;&gt;&lt;span style=&quot;color: rgb(55, 65, 81); background-color: initial;&quot;&gt;Dados&lt;/span&gt;&lt;/li&gt;&lt;/ul&gt;&lt;ul&gt;&lt;li style=&quot;text-align: justify;&quot;&gt;&lt;span style=&quot;color: rgb(55, 65, 81); background-color: initial;&quot;&gt;hora&lt;/span&gt;&lt;/li&gt;&lt;/ul&gt;&lt;ul&gt;&lt;li style=&quot;text-align: justify;&quot;&gt;&lt;span style=&quot;color: rgb(55, 65, 81); background-color: initial;&quot;&gt;Dia da Semana&lt;/span&gt;&lt;/li&gt;&lt;/ul&gt;&lt;ul&gt;&lt;li style=&quot;text-align: justify;&quot;&gt;&lt;span style=&quot;color: rgb(55, 65, 81); background-color: initial;&quot;&gt;Mes&lt;/span&gt;&lt;/li&gt;&lt;/ul&gt;&lt;ul&gt;&lt;li style=&quot;text-align: justify;&quot;&gt;&lt;span style=&quot;color: rgb(55, 65, 81); background-color: initial;&quot;&gt;Ano&lt;/span&gt;&lt;/li&gt;&lt;/ul&gt;&lt;ul&gt;&lt;li style=&quot;text-align: justify;&quot;&gt;&lt;span style=&quot;color: rgb(55, 65, 81); background-color: initial;&quot;&gt;Feriados ou eventos especiais (para análise sazonal)&lt;/span&gt;&lt;/li&gt;&lt;/ul&gt;" style="text;strokeColor=none;fillColor=none;align=left;verticalAlign=middle;spacingLeft=-14;spacingRight=20;overflow=hidden;points=[[0,0.5],[1,0.5]];portConstraint=eastwest;rotatable=0;whiteSpace=wrap;html=1;fontFamily=Courier New;spacing=0;fontStyle=1" parent="_yAwY9JpoHFZiGc7RJdQ-37" vertex="1">
          <mxGeometry y="30" width="190" height="230" as="geometry" />
        </mxCell>
        <mxCell id="U0Dm-3HwFvKWNL6rIwJs-2" value="" style="edgeStyle=orthogonalEdgeStyle;rounded=0;orthogonalLoop=1;jettySize=auto;html=1;exitX=0.25;exitY=1;exitDx=0;exitDy=0;" edge="1" parent="WIyWlLk6GJQsqaUBKTNV-1" source="_yAwY9JpoHFZiGc7RJdQ-24">
          <mxGeometry relative="1" as="geometry">
            <mxPoint x="404" y="893" as="sourcePoint" />
            <mxPoint x="268" y="893" as="targetPoint" />
            <Array as="points">
              <mxPoint x="350" y="868" />
              <mxPoint x="285" y="868" />
              <mxPoint x="285" y="893" />
            </Array>
          </mxGeometry>
        </mxCell>
        <mxCell id="_yAwY9JpoHFZiGc7RJdQ-41" value="&lt;font style=&quot;vertical-align: inherit; font-size: 14px;&quot;&gt;&lt;font style=&quot;vertical-align: inherit; font-size: 14px;&quot;&gt;&lt;font style=&quot;vertical-align: inherit; font-size: 14px;&quot;&gt;&lt;font style=&quot;vertical-align: inherit; font-size: 14px;&quot;&gt;Ingredientes&lt;/font&gt;&lt;/font&gt;&lt;/font&gt;&lt;/font&gt;" style="swimlane;fontStyle=1;childLayout=stackLayout;horizontal=1;startSize=30;horizontalStack=0;resizeParent=1;resizeParentMax=0;resizeLast=0;collapsible=1;marginBottom=0;whiteSpace=wrap;html=1;fontSize=14;fontFamily=Lucida Console;spacingRight=1;" parent="WIyWlLk6GJQsqaUBKTNV-1" vertex="1">
          <mxGeometry x="48" y="773" width="220" height="210" as="geometry" />
        </mxCell>
        <mxCell id="_yAwY9JpoHFZiGc7RJdQ-42" value="&lt;ul&gt;&lt;li style=&quot;&quot;&gt;&lt;span style=&quot;color: rgb(55, 65, 81); background-color: initial;&quot;&gt;&lt;font face=&quot;Courier New&quot;&gt;ID do Ingrediente (chave primária)&lt;/font&gt;&lt;/span&gt;&lt;/li&gt;&lt;/ul&gt;&lt;ul&gt;&lt;li style=&quot;&quot;&gt;&lt;span style=&quot;color: rgb(55, 65, 81); background-color: initial;&quot;&gt;&lt;font face=&quot;Courier New&quot;&gt;Nome do Ingrediente&lt;/font&gt;&lt;/span&gt;&lt;/li&gt;&lt;/ul&gt;&lt;ul&gt;&lt;li style=&quot;&quot;&gt;&lt;span style=&quot;color: rgb(55, 65, 81); background-color: initial;&quot;&gt;&lt;font face=&quot;Courier New&quot;&gt;Unidade de medida (gramas, unidades, etc.)&lt;/font&gt;&lt;/span&gt;&lt;/li&gt;&lt;/ul&gt;&lt;ul&gt;&lt;li style=&quot;&quot;&gt;&lt;span style=&quot;color: rgb(55, 65, 81); background-color: initial;&quot;&gt;&lt;font face=&quot;Courier New&quot;&gt;Fornecedor do Ingrediente&lt;/font&gt;&lt;/span&gt;&lt;/li&gt;&lt;/ul&gt;&lt;ul&gt;&lt;li style=&quot;&quot;&gt;&lt;span style=&quot;color: rgb(55, 65, 81); background-color: initial;&quot;&gt;&lt;font face=&quot;Courier New&quot;&gt;Preço do Ingrediente&lt;/font&gt;&lt;/span&gt;&lt;/li&gt;&lt;/ul&gt;" style="text;strokeColor=none;fillColor=none;align=left;verticalAlign=middle;spacingLeft=-18;spacingRight=-15;overflow=hidden;points=[[0,0.5],[1,0.5]];portConstraint=eastwest;rotatable=0;whiteSpace=wrap;html=1;fontStyle=1" parent="_yAwY9JpoHFZiGc7RJdQ-41" vertex="1">
          <mxGeometry y="30" width="220" height="180" as="geometry" />
        </mxCell>
        <mxCell id="_yAwY9JpoHFZiGc7RJdQ-45" value="&lt;font style=&quot;vertical-align: inherit; font-size: 14px;&quot;&gt;&lt;font style=&quot;vertical-align: inherit; font-size: 14px;&quot;&gt;&lt;font style=&quot;vertical-align: inherit; font-size: 14px;&quot;&gt;&lt;font style=&quot;vertical-align: inherit; font-size: 14px;&quot;&gt;Pizzas&lt;/font&gt;&lt;/font&gt;&lt;/font&gt;&lt;/font&gt;" style="swimlane;fontStyle=1;childLayout=stackLayout;horizontal=1;startSize=30;horizontalStack=0;resizeParent=1;resizeParentMax=0;resizeLast=0;collapsible=1;marginBottom=0;whiteSpace=wrap;html=1;fontSize=14;fontFamily=Lucida Console;" parent="WIyWlLk6GJQsqaUBKTNV-1" vertex="1">
          <mxGeometry x="558" y="443" width="240" height="200" as="geometry" />
        </mxCell>
        <mxCell id="_yAwY9JpoHFZiGc7RJdQ-46" value="&lt;ul&gt;&lt;li&gt;&lt;b style=&quot;font-family: &amp;quot;Courier New&amp;quot;; text-align: justify; color: rgb(55, 65, 81); background-color: initial;&quot;&gt;ID da Pizza (chave primária)&lt;/b&gt;&lt;/li&gt;&lt;/ul&gt;&lt;ul&gt;&lt;li&gt;&lt;b style=&quot;font-family: &amp;quot;Courier New&amp;quot;; text-align: justify; color: rgb(55, 65, 81); background-color: initial;&quot;&gt;Nome da Pizza&lt;/b&gt;&lt;/li&gt;&lt;/ul&gt;&lt;ul&gt;&lt;li&gt;&lt;b style=&quot;font-family: &amp;quot;Courier New&amp;quot;; text-align: justify; color: rgb(55, 65, 81); background-color: initial;&quot;&gt;Preço da Pizza&lt;/b&gt;&lt;/li&gt;&lt;/ul&gt;&lt;ul&gt;&lt;li&gt;&lt;b style=&quot;font-family: &amp;quot;Courier New&amp;quot;; text-align: justify; color: rgb(55, 65, 81); background-color: initial;&quot;&gt;Tamanho da Pizza (broto, família, big, trem)&lt;/b&gt;&lt;/li&gt;&lt;/ul&gt;&lt;ul&gt;&lt;li&gt;&lt;b style=&quot;font-family: &amp;quot;Courier New&amp;quot;; text-align: justify; color: rgb(55, 65, 81); background-color: initial;&quot;&gt;Tempo de Preparação Estimado&lt;/b&gt;&lt;/li&gt;&lt;/ul&gt;" style="text;strokeColor=none;fillColor=none;align=left;verticalAlign=middle;spacingLeft=-19;spacingRight=-4;overflow=hidden;points=[[0,0.5],[1,0.5]];portConstraint=eastwest;rotatable=0;whiteSpace=wrap;html=1;" parent="_yAwY9JpoHFZiGc7RJdQ-45" vertex="1">
          <mxGeometry y="30" width="240" height="170" as="geometry" />
        </mxCell>
        <mxCell id="_yAwY9JpoHFZiGc7RJdQ-62" value="" style="edgeStyle=orthogonalEdgeStyle;rounded=0;orthogonalLoop=1;jettySize=auto;html=1;entryX=0.5;entryY=0.009;entryDx=0;entryDy=0;entryPerimeter=0;" parent="WIyWlLk6GJQsqaUBKTNV-1" edge="1" target="_yAwY9JpoHFZiGc7RJdQ-49">
          <mxGeometry relative="1" as="geometry">
            <mxPoint x="668" y="791" as="targetPoint" />
            <Array as="points">
              <mxPoint x="668" y="748" />
            </Array>
            <mxPoint x="537" y="748" as="sourcePoint" />
          </mxGeometry>
        </mxCell>
        <mxCell id="_yAwY9JpoHFZiGc7RJdQ-49" value="&lt;font style=&quot;vertical-align: inherit; font-size: 14px;&quot;&gt;&lt;font style=&quot;vertical-align: inherit; font-size: 14px;&quot;&gt;&lt;font style=&quot;vertical-align: inherit; font-size: 14px;&quot;&gt;&lt;font style=&quot;vertical-align: inherit; font-size: 14px;&quot;&gt;Funcionários&lt;/font&gt;&lt;/font&gt;&lt;/font&gt;&lt;/font&gt;" style="swimlane;fontStyle=1;childLayout=stackLayout;horizontal=1;startSize=30;horizontalStack=0;resizeParent=1;resizeParentMax=0;resizeLast=0;collapsible=1;marginBottom=0;whiteSpace=wrap;html=1;fontSize=14;fontFamily=Lucida Console;" parent="WIyWlLk6GJQsqaUBKTNV-1" vertex="1">
          <mxGeometry x="568" y="793" width="200" height="220" as="geometry" />
        </mxCell>
        <mxCell id="_yAwY9JpoHFZiGc7RJdQ-50" value="&lt;ul&gt;&lt;li&gt;&lt;span style=&quot;font-family: &amp;quot;Courier New&amp;quot;; text-align: justify; color: rgb(55, 65, 81); background-color: initial;&quot;&gt;ID do Funcionário (chave primária)&lt;/span&gt;&lt;/li&gt;&lt;/ul&gt;&lt;ul&gt;&lt;li&gt;&lt;span style=&quot;font-family: &amp;quot;Courier New&amp;quot;; text-align: justify; color: rgb(55, 65, 81); background-color: initial;&quot;&gt;Nome do Funcionário&lt;/span&gt;&lt;/li&gt;&lt;/ul&gt;&lt;ul&gt;&lt;li&gt;&lt;span style=&quot;font-family: &amp;quot;Courier New&amp;quot;; text-align: justify; color: rgb(55, 65, 81); background-color: initial;&quot;&gt;Carga do Funcionário&lt;/span&gt;&lt;/li&gt;&lt;/ul&gt;&lt;ul&gt;&lt;li&gt;&lt;span style=&quot;font-family: &amp;quot;Courier New&amp;quot;; text-align: justify; color: rgb(55, 65, 81); background-color: initial;&quot;&gt;Salário do Funcionário&lt;/span&gt;&lt;/li&gt;&lt;/ul&gt;&lt;ul&gt;&lt;li&gt;&lt;span style=&quot;font-family: &amp;quot;Courier New&amp;quot;; text-align: justify; color: rgb(55, 65, 81); background-color: initial;&quot;&gt;Dados de Contratação&lt;/span&gt;&lt;/li&gt;&lt;/ul&gt;&lt;ul&gt;&lt;li&gt;&lt;span style=&quot;font-family: &amp;quot;Courier New&amp;quot;; text-align: justify; color: rgb(55, 65, 81); background-color: initial;&quot;&gt;Avaliação do Desempenho&lt;/span&gt;&lt;/li&gt;&lt;/ul&gt;" style="text;strokeColor=none;fillColor=none;align=left;verticalAlign=middle;spacingLeft=-17;spacingRight=4;overflow=hidden;points=[[0,0.5],[1,0.5]];portConstraint=eastwest;rotatable=0;whiteSpace=wrap;html=1;fontStyle=1" parent="_yAwY9JpoHFZiGc7RJdQ-49" vertex="1">
          <mxGeometry y="30" width="200" height="190" as="geometry" />
        </mxCell>
        <mxCell id="_yAwY9JpoHFZiGc7RJdQ-57" value="" style="edgeStyle=orthogonalEdgeStyle;rounded=0;orthogonalLoop=1;jettySize=auto;html=1;" parent="WIyWlLk6GJQsqaUBKTNV-1" source="_yAwY9JpoHFZiGc7RJdQ-25" target="_yAwY9JpoHFZiGc7RJdQ-38" edge="1">
          <mxGeometry relative="1" as="geometry">
            <Array as="points">
              <mxPoint x="265" y="668" />
              <mxPoint x="265" y="588" />
            </Array>
          </mxGeometry>
        </mxCell>
        <mxCell id="_yAwY9JpoHFZiGc7RJdQ-65" value="" style="edgeStyle=orthogonalEdgeStyle;rounded=0;orthogonalLoop=1;jettySize=auto;html=1;exitX=0.25;exitY=0;exitDx=0;exitDy=0;entryX=1;entryY=0.5;entryDx=0;entryDy=0;" parent="WIyWlLk6GJQsqaUBKTNV-1" source="_yAwY9JpoHFZiGc7RJdQ-24" target="_yAwY9JpoHFZiGc7RJdQ-33" edge="1">
          <mxGeometry relative="1" as="geometry">
            <Array as="points">
              <mxPoint x="349" y="393" />
              <mxPoint x="296" y="393" />
              <mxPoint x="296" y="288" />
            </Array>
            <mxPoint x="358" y="370" as="targetPoint" />
          </mxGeometry>
        </mxCell>
        <mxCell id="_yAwY9JpoHFZiGc7RJdQ-72" value="" style="edgeStyle=orthogonalEdgeStyle;rounded=0;orthogonalLoop=1;jettySize=auto;html=1;" parent="WIyWlLk6GJQsqaUBKTNV-1" edge="1">
          <mxGeometry relative="1" as="geometry">
            <mxPoint x="412.74" y="881" as="targetPoint" />
            <mxPoint x="412.74" y="843" as="sourcePoint" />
          </mxGeometry>
        </mxCell>
        <mxCell id="_yAwY9JpoHFZiGc7RJdQ-67" value="&lt;font style=&quot;vertical-align: inherit; font-size: 14px;&quot;&gt;&lt;font style=&quot;vertical-align: inherit; font-size: 14px;&quot;&gt;&lt;font style=&quot;vertical-align: inherit; font-size: 14px;&quot;&gt;&lt;font style=&quot;vertical-align: inherit; font-size: 14px;&quot;&gt;Formas de pagamento&lt;/font&gt;&lt;/font&gt;&lt;/font&gt;&lt;/font&gt;" style="swimlane;fontStyle=1;childLayout=stackLayout;horizontal=1;startSize=30;horizontalStack=0;resizeParent=1;resizeParentMax=0;resizeLast=0;collapsible=1;marginBottom=0;whiteSpace=wrap;html=1;fontSize=14;fontFamily=Lucida Console;" parent="WIyWlLk6GJQsqaUBKTNV-1" vertex="1">
          <mxGeometry x="303" y="881" width="220" height="190" as="geometry" />
        </mxCell>
        <mxCell id="_yAwY9JpoHFZiGc7RJdQ-68" value="&lt;ul style=&quot;font-size: 11px;&quot;&gt;&lt;li style=&quot;font-size: 11px;&quot;&gt;&lt;span style=&quot;background-color: initial; font-size: 11px;&quot;&gt;ID do Método de Pagamento (chave primária)&lt;/span&gt;&lt;/li&gt;&lt;/ul&gt;&lt;ul style=&quot;font-size: 11px;&quot;&gt;&lt;li style=&quot;font-size: 11px;&quot;&gt;&lt;span style=&quot;background-color: initial; font-size: 11px;&quot;&gt;Nome do Método de Pagamento (cartão de crédito, dinheiro, transferência, etc.)&lt;/span&gt;&lt;/li&gt;&lt;/ul&gt;&lt;ul style=&quot;font-size: 11px;&quot;&gt;&lt;li style=&quot;font-size: 11px;&quot;&gt;&lt;span style=&quot;background-color: initial; font-size: 11px;&quot;&gt;Descrição do Método de Pagamento (detalhes adicionais, se necessário)&lt;/span&gt;&lt;/li&gt;&lt;/ul&gt;" style="text;strokeColor=none;fillColor=none;align=left;verticalAlign=middle;spacingLeft=-21;spacingRight=-5;overflow=hidden;points=[[0,0.5],[1,0.5]];portConstraint=eastwest;rotatable=0;whiteSpace=wrap;html=1;fontStyle=1;fontSize=11;fontFamily=Courier New;" parent="_yAwY9JpoHFZiGc7RJdQ-67" vertex="1">
          <mxGeometry y="30" width="220" height="160" as="geometry" />
        </mxCell>
        <mxCell id="_yAwY9JpoHFZiGc7RJdQ-71" value="" style="edgeStyle=orthogonalEdgeStyle;rounded=0;orthogonalLoop=1;jettySize=auto;html=1;entryX=0;entryY=0.5;entryDx=0;entryDy=0;" parent="WIyWlLk6GJQsqaUBKTNV-1" target="_yAwY9JpoHFZiGc7RJdQ-20" edge="1">
          <mxGeometry relative="1" as="geometry">
            <mxPoint x="555.03" y="327.03" as="targetPoint" />
            <Array as="points">
              <mxPoint x="476" y="392" />
              <mxPoint x="535" y="392" />
              <mxPoint x="535" y="258" />
            </Array>
            <mxPoint x="476" y="463" as="sourcePoint" />
          </mxGeometry>
        </mxCell>
      </root>
    </mxGraphModel>
  </diagram>
</mxfile>
